<svg xmlns="http://www.w3.org/2000/svg" version="1.1" xmlns:xlink="http://www.w3.org/1999/xlink" xmlns:svgjs="http://svgjs.dev/svgjs" width="2000" height="1247" viewBox="0 0 2000 1247"><g transform="matrix(1,0,0,1,-1.2121212121211329,0.504858299595071)"><svg viewBox="0 0 396 247" data-background-color="#fdf8f1" preserveAspectRatio="xMidYMid meet" height="1247" width="2000" xmlns="http://www.w3.org/2000/svg" xmlns:xlink="http://www.w3.org/1999/xlink"><g id="tight-bounds" transform="matrix(1,0,0,1,0.2400000000000091,-0.09999999999999432)"><svg viewBox="0 0 395.52 247.2" height="247.2" width="395.52"><g><svg></svg></g><g><svg viewBox="0 0 395.52 247.2" height="247.2" width="395.52"><g transform="matrix(1,0,0,1,75.54432,96.87807786213179)"><svg viewBox="0 0 244.43135999999998 53.44384427573641" height="53.44384427573641" width="244.43135999999998"><g><svg viewBox="0 0 244.43135999999998 53.44384427573641" height="53.44384427573641" width="244.43135999999998"><g><svg viewBox="0 0 244.43135999999998 53.44384427573641" height="53.44384427573641" width="244.43135999999998"><g><svg viewBox="0 0 244.43135999999998 53.44384427573641" height="53.44384427573641" width="244.43135999999998"><g><svg viewBox="0 0 244.43135999999998 53.44384427573641" height="53.44384427573641" width="244.43135999999998"><g><svg viewBox="0 0 244.43135999999998 53.44384427573641" height="53.44384427573641" width="244.43135999999998"><g transform="matrix(1,0,0,1,0,0)"><svg width="244.43135999999998" viewBox="1.7 -35.5 164.63000000000002 36" height="53.44384427573641" data-palette-color="#09814b"><path d="M9.8 0.5Q5.85 0.5 3.78-1.75 1.7-4 1.7-8.1L1.7-8.1 1.7-26.9Q1.7-31 3.78-33.25 5.85-35.5 9.8-35.5L9.8-35.5Q13.75-35.5 15.83-33.25 17.9-31 17.9-26.9L17.9-26.9 17.9-23.2 12.7-23.2 12.7-27.25Q12.7-30.5 9.95-30.5L9.95-30.5Q7.2-30.5 7.2-27.25L7.2-27.25 7.2-7.7Q7.2-4.5 9.95-4.5L9.95-4.5Q12.7-4.5 12.7-7.7L12.7-7.7 12.7-13.05 17.9-13.05 17.9-8.1Q17.9-4 15.83-1.75 13.75 0.5 9.8 0.5L9.8 0.5ZM21.2 0L21.2-35 26.7-35 26.7-5 35.75-5 35.75 0 21.2 0ZM38.39 0L38.39-35 43.89-35 43.89 0 38.39 0ZM47.99 0L47.99-35 54.89-35 60.24-14.05 60.34-14.05 60.34-35 65.24-35 65.24 0 59.59 0 52.99-25.55 52.89-25.55 52.89 0 47.99 0ZM69.34 0L69.34-35 74.84-35 74.84 0 69.34 0ZM86.69 0.5Q82.74 0.5 80.66-1.75 78.59-4 78.59-8.1L78.59-8.1 78.59-26.9Q78.59-31 80.66-33.25 82.74-35.5 86.69-35.5L86.69-35.5Q90.64-35.5 92.71-33.25 94.79-31 94.79-26.9L94.79-26.9 94.79-23.2 89.59-23.2 89.59-27.25Q89.59-30.5 86.84-30.5L86.84-30.5Q84.09-30.5 84.09-27.25L84.09-27.25 84.09-7.7Q84.09-4.5 86.84-4.5L86.84-4.5Q89.59-4.5 89.59-7.7L89.59-7.7 89.59-13.05 94.79-13.05 94.79-8.1Q94.79-4 92.71-1.75 90.64 0.5 86.69 0.5L86.69 0.5ZM98.09 0L98.09-35 103.59-35 103.59 0 98.09 0ZM106.23 0L111.93-35 119.38-35 125.08 0 119.58 0 118.58-6.95 118.58-6.85 112.33-6.85 111.33 0 106.23 0ZM112.98-11.6L117.93-11.6 115.48-28.9 115.38-28.9 112.98-11.6ZM127.73 0L127.73-35 134.63-35 139.98-14.05 140.08-14.05 140.08-35 144.98-35 144.98 0 139.33 0 132.73-25.55 132.63-25.55 132.63 0 127.73 0ZM149.08 0L149.08-35 155.98-35 161.33-14.05 161.43-14.05 161.43-35 166.33-35 166.33 0 160.68 0 154.08-25.55 153.98-25.55 153.98 0 149.08 0Z" opacity="1" transform="matrix(1,0,0,1,0,0)" fill="#09814b" class="undefined-text-0" data-fill-palette-color="primary" id="text-0"></path></svg></g></svg></g></svg></g></svg></g></svg></g></svg></g></svg></g><g><path d="M0 123.6c0-68.262 55.338-123.6 123.6-123.6 56.823 0 104.69 38.344 119.137 90.57h-2.503c-14.38-50.878-61.153-88.16-116.634-88.16-66.931 0-121.19 54.259-121.19 121.19 0 66.931 54.259 121.19 121.19 121.19 55.481 0 102.255-37.282 116.634-88.16h2.503c-14.448 52.225-62.315 90.57-119.137 90.57-68.262 0-123.6-55.338-123.6-123.6z" fill="#3aa444" stroke="transparent" data-fill-palette-color="tertiary"></path></g></svg></g><defs></defs></svg><rect width="395.52" height="247.2" fill="none" stroke="none" visibility="hidden"></rect></g></svg></g></svg>